<?xml version="1.0"?>
<svg xmlns="http://www.w3.org/2000/svg" xmlns:xlink="http://www.w3.org/1999/xlink" xmlns:svgjs="http://svgjs.com/svgjs" version="1.1" width="512" height="512" x="0" y="0" viewBox="0 0 477.872 477.872" style="enable-background:new 0 0 512 512" xml:space="preserve" class=""><g>
<g xmlns="http://www.w3.org/2000/svg">
	<g>
		<path d="M469.763,2.547c-5.027-3.105-11.302-3.389-16.589-0.751L323.843,66.478L177.599,1.471    c-0.239-0.102-0.512-0.12-0.768-0.222c-0.658-0.246-1.331-0.451-2.014-0.614c-0.679-0.183-1.369-0.326-2.065-0.427    c-1.386-0.114-2.779-0.114-4.164,0c-0.696,0.101-1.386,0.244-2.065,0.427c-0.683,0.163-1.356,0.368-2.014,0.614    c-0.256,0.102-0.529,0.119-0.768,0.222L10.14,69.738C3.975,72.477,0.002,78.591,0.003,85.337v375.467    c-0.001,9.426,7.639,17.068,17.065,17.069c2.388,0,4.749-0.5,6.931-1.47l146.671-65.195l146.671,65.195    c0.256,0.102,0.529,0,0.785,0.154c4.132,1.848,8.875,1.742,12.919-0.29c0.273-0.119,0.58,0,0.853-0.188l136.533-68.267    c5.786-2.891,9.441-8.806,9.438-15.275V17.07C477.869,11.151,474.801,5.654,469.763,2.547z" fill="#ffffff" data-original="#000000" style="" class=""/>
	</g>
</g>
<g xmlns="http://www.w3.org/2000/svg">
</g>
<g xmlns="http://www.w3.org/2000/svg">
</g>
<g xmlns="http://www.w3.org/2000/svg">
</g>
<g xmlns="http://www.w3.org/2000/svg">
</g>
<g xmlns="http://www.w3.org/2000/svg">
</g>
<g xmlns="http://www.w3.org/2000/svg">
</g>
<g xmlns="http://www.w3.org/2000/svg">
</g>
<g xmlns="http://www.w3.org/2000/svg">
</g>
<g xmlns="http://www.w3.org/2000/svg">
</g>
<g xmlns="http://www.w3.org/2000/svg">
</g>
<g xmlns="http://www.w3.org/2000/svg">
</g>
<g xmlns="http://www.w3.org/2000/svg">
</g>
<g xmlns="http://www.w3.org/2000/svg">
</g>
<g xmlns="http://www.w3.org/2000/svg">
</g>
<g xmlns="http://www.w3.org/2000/svg">
</g>
</g></svg>
