<?xml version="1.0"?>
<svg xmlns="http://www.w3.org/2000/svg" xmlns:xlink="http://www.w3.org/1999/xlink" xmlns:svgjs="http://svgjs.com/svgjs" version="1.1" width="512" height="512" x="0" y="0" viewBox="0 0 394.971 394.971" style="enable-background:new 0 0 512 512" xml:space="preserve" class=""><g>
<g xmlns="http://www.w3.org/2000/svg">
	<g>
		<g>
			<circle cx="56.424" cy="197.486" r="51.2" fill="#ffffff" data-original="#000000" style="" class=""/>
			<path d="M379.298,187.037H143.151c-5.771,0-10.449,4.678-10.449,10.449s4.678,10.449,10.449,10.449h236.147     c5.771,0,10.449-4.678,10.449-10.449S385.069,187.037,379.298,187.037z" fill="#ffffff" data-original="#000000" style="" class=""/>
			<circle cx="56.424" cy="51.2" r="51.2" fill="#ffffff" data-original="#000000" style="" class=""/>
			<path d="M143.151,61.649h236.147c5.771,0,10.449-4.678,10.449-10.449s-4.678-10.449-10.449-10.449H143.151     c-5.771,0-10.449,4.678-10.449,10.449S137.38,61.649,143.151,61.649z" fill="#ffffff" data-original="#000000" style="" class=""/>
			<circle cx="56.424" cy="343.771" r="51.2" fill="#ffffff" data-original="#000000" style="" class=""/>
			<path d="M379.298,333.322H143.151c-5.771,0-10.449,4.678-10.449,10.449s4.678,10.449,10.449,10.449h236.147     c5.771,0,10.449-4.678,10.449-10.449S385.069,333.322,379.298,333.322z" fill="#ffffff" data-original="#000000" style="" class=""/>
		</g>
	</g>
</g>
<g xmlns="http://www.w3.org/2000/svg">
</g>
<g xmlns="http://www.w3.org/2000/svg">
</g>
<g xmlns="http://www.w3.org/2000/svg">
</g>
<g xmlns="http://www.w3.org/2000/svg">
</g>
<g xmlns="http://www.w3.org/2000/svg">
</g>
<g xmlns="http://www.w3.org/2000/svg">
</g>
<g xmlns="http://www.w3.org/2000/svg">
</g>
<g xmlns="http://www.w3.org/2000/svg">
</g>
<g xmlns="http://www.w3.org/2000/svg">
</g>
<g xmlns="http://www.w3.org/2000/svg">
</g>
<g xmlns="http://www.w3.org/2000/svg">
</g>
<g xmlns="http://www.w3.org/2000/svg">
</g>
<g xmlns="http://www.w3.org/2000/svg">
</g>
<g xmlns="http://www.w3.org/2000/svg">
</g>
<g xmlns="http://www.w3.org/2000/svg">
</g>
</g></svg>
